<svg width="1024" height="1024" viewBox="0 0 1024 1024" fill="none" xmlns="http://www.w3.org/2000/svg">
  <defs>
    <!-- subtle Apple-Notes-style gradients -->
    <linearGradient id="body" x1="512" y1="100" x2="512" y2="924" gradientUnits="userSpaceOnUse">
      <stop stop-color="#24262D"/>
      <stop offset="1" stop-color="#141620"/>
    </linearGradient>
    <linearGradient id="header" x1="512" y1="100" x2="512" y2="268" gradientUnits="userSpaceOnUse">
      <stop stop-color="#F4AC6A"/>
      <stop offset="1" stop-color="#E0863C"/>
    </linearGradient>
    <radialGradient id="bodySheen" cx="512" cy="268" r="540" gradientUnits="userSpaceOnUse">
      <stop stop-color="#FFFFFF" stop-opacity="0.05"/>
      <stop offset="0.6" stop-color="#FFFFFF" stop-opacity="0"/>
    </radialGradient>

    <!-- graph-paper grid (body content) — larger cells, a touch more visible -->
    <pattern id="paper" width="76" height="76" patternUnits="userSpaceOnUse" x="104" y="268">
      <path d="M76 0 H0 V76" fill="none" stroke="#C9D2E4" stroke-opacity="0.12" stroke-width="2"/>
    </pattern>

    <clipPath id="sq">
      <rect x="100" y="100" width="824" height="824" rx="185" ry="185"/>
    </clipPath>
  </defs>

  <!-- the icon IS the notepad: dark body fills the whole squircle -->
  <rect x="100" y="100" width="824" height="824" rx="185" ry="185" fill="url(#body)"/>

  <g clip-path="url(#sq)">
    <!-- graph-paper grid over the body -->
    <rect x="100" y="100" width="824" height="824" fill="url(#paper)"/>
    <rect x="100" y="100" width="824" height="824" fill="url(#bodySheen)"/>

    <!-- orange header band (smaller, ~20%; rounds with the squircle's top corners) -->
    <rect x="100" y="100" width="824" height="168" fill="url(#header)"/>
    <!-- crisp fold line under the header -->
    <rect x="100" y="266" width="824" height="3" fill="#BD6B2F" opacity="0.55"/>

    <!-- perforation row at the bottom of the header (the tear line, like a real pad) -->
    <g fill="#16181F">
      <circle cx="248" cy="244" r="7"/>
      <circle cx="314" cy="244" r="7"/>
      <circle cx="380" cy="244" r="7"/>
      <circle cx="446" cy="244" r="7"/>
      <circle cx="512" cy="244" r="7"/>
      <circle cx="578" cy="244" r="7"/>
      <circle cx="644" cy="244" r="7"/>
      <circle cx="710" cy="244" r="7"/>
      <circle cx="776" cy="244" r="7"/>
    </g>

    <!-- distinct detail: a coral "title" written on the grid -->
    <rect x="180" y="398" width="252" height="22" rx="11" fill="#E8915A"/>
  </g>

  <rect x="101" y="101" width="822" height="822" rx="184" ry="184" fill="none" stroke="#FFFFFF" stroke-opacity="0.10" stroke-width="2"/>
</svg>
